<?xml version="1.0" standalone="no"?>
<!DOCTYPE svg PUBLIC "-//W3C//DTD SVG 20010904//EN"
 "http://www.w3.org/TR/2001/REC-SVG-20010904/DTD/svg10.dtd">
<svg version="1.0" xmlns="http://www.w3.org/2000/svg"
 width="72.000000pt" height="72.000000pt" viewBox="0 0 72.000000 72.000000"
 preserveAspectRatio="xMidYMid meet">
<metadata>
Created by potrace 1.14, written by Peter Selinger 2001-2017
</metadata>
<g transform="translate(0.000000,72.000000) scale(0.100000,-0.100000)"
fill="#000000" stroke="none">
<path d="M279 550 l3 -120 -107 -186 c-59 -102 -105 -187 -102 -190 2 -2 135
-3 294 -2 l291 3 -110 190 -109 189 3 101 c2 55 7 108 12 118 7 16 0 17 -85
17 l-94 0 4 -120z m90 72 c12 -22 -3 -42 -30 -42 -22 0 -33 28 -18 46 16 19
36 17 48 -4z m51 -95 c0 -8 -3 -17 -7 -20 -9 -9 -34 13 -27 24 8 14 34 11 34
-4z m13 -168 c13 -6 30 -25 39 -42 8 -18 40 -76 72 -130 32 -54 56 -101 53
-103 -2 -2 -110 -3 -241 -2 l-236 3 61 105 c33 58 65 107 70 108 5 2 9 19 9
38 l0 34 75 0 c41 0 85 -5 98 -11z"/>
<path d="M300 320 c0 -13 -7 -20 -20 -20 -20 0 -21 -5 -18 -97 3 -84 6 -98 21
-101 15 -3 17 5 17 57 0 40 4 61 12 61 6 0 39 -27 74 -60 34 -33 67 -60 73
-60 24 0 9 32 -35 72 l-46 42 29 9 c15 6 36 16 46 25 21 19 23 52 2 52 -8 0
-24 9 -35 20 -15 15 -33 20 -70 20 -43 0 -50 -3 -50 -20z m128 -37 c-2 -12
-18 -21 -50 -27 -55 -11 -78 -4 -78 24 0 18 6 20 66 20 57 0 65 -2 62 -17z"/>
</g>
</svg>
